<?xml version="1.0" standalone="no"?><svg xmlns="http://www.w3.org/2000/svg" viewBox="0 0 1440 320"><path fill="#00cba9" fill-opacity="1" d="M0,96L40,106.7C80,117,160,139,240,176C320,213,400,267,480,256C560,245,640,171,720,122.7C800,75,880,53,960,42.7C1040,32,1120,32,1200,58.7C1280,85,1360,139,1400,165.3L1440,192L1440,320L1400,320C1360,320,1280,320,1200,320C1120,320,1040,320,960,320C880,320,800,320,720,320C640,320,560,320,480,320C400,320,320,320,240,320C160,320,80,320,40,320L0,320Z"></path></svg>